<svg xmlns="http://www.w3.org/2000/svg" width="34" height="36" viewBox="0 0 34 36" fill="none">
<mask id="path-1-outside-1_52_1348" maskUnits="userSpaceOnUse" x="-0.247314" y="0.429688" width="34" height="36" fill="black">
<rect fill="white" x="-0.247314" y="0.429688" width="34" height="36"/>
<path d="M26.0093 10.4621C25.5564 9.68025 24.8118 9.1096 23.9387 8.87504C23.5075 8.75658 23.0569 8.72564 22.6136 8.78405C22.1702 8.84246 21.7431 8.98904 21.3574 9.21512C20.8389 9.5139 20.4084 9.944 20.1094 10.4621L17.8969 6.63621C17.6736 6.24898 17.376 5.90952 17.0213 5.63725C16.6666 5.36497 16.2616 5.16522 15.8296 5.04941C15.3976 4.93361 14.9469 4.90401 14.5034 4.96233C14.06 5.02064 13.6323 5.16572 13.245 5.38927C12.7059 5.69607 12.2637 6.14769 11.9685 6.69289C11.5643 6.22308 11.0393 5.87252 10.4503 5.67905C9.86119 5.48559 9.23041 5.45657 8.62603 5.59513C8.02166 5.73369 7.46664 6.03457 7.02093 6.46527C6.57521 6.89598 6.25572 7.44015 6.09695 8.03902C5.9407 8.6095 5.9407 9.21144 6.09695 9.78191C5.6708 9.84205 5.26096 9.98657 4.89143 10.207C4.50385 10.4301 4.16409 10.7274 3.89157 11.0818C3.61905 11.4362 3.41912 11.8408 3.3032 12.2724C3.18729 12.704 3.15767 13.1543 3.21604 13.5974C3.27441 14.0405 3.41962 14.4677 3.64337 14.8547L4.15394 15.7332C3.55638 15.7305 2.9689 15.8871 2.45203 16.1867C1.67213 16.6399 1.10324 17.3829 0.869443 18.2536C0.635642 19.1242 0.755888 20.0519 1.20396 20.8344L6.45152 29.9172C7.50622 31.7332 9.05623 33.212 10.9206 34.1809C12.7849 35.1498 14.8867 35.5688 16.9805 35.389C19.0742 35.2093 21.0736 34.4381 22.7452 33.1656C24.4167 31.8932 25.6915 30.1718 26.4206 28.2027C28.225 26.4891 29.4025 24.2208 29.765 21.7601C30.1275 19.2994 29.6541 16.7883 28.4204 14.628L26.0093 10.4621ZM13.3017 7.88316C13.3597 7.66895 13.4598 7.46843 13.5962 7.29327C13.7325 7.11811 13.9024 6.97182 14.0959 6.86293C14.2896 6.75116 14.5034 6.67862 14.7252 6.64946C14.9469 6.6203 15.1722 6.6351 15.3883 6.693C15.6043 6.75091 15.8067 6.85078 15.9841 6.98692C16.1615 7.12306 16.3102 7.29279 16.4219 7.4864L19.6413 13.041C19.2615 13.1165 18.8971 13.2554 18.5635 13.4519C18.0388 13.7427 17.6064 14.1747 17.3154 14.6988L15.1029 10.8588C14.7626 10.2837 14.2659 9.81684 13.6705 9.51269L13.4719 9.18678C13.247 8.79109 13.1859 8.32323 13.3017 7.88316ZM7.74213 8.47829C7.82873 8.15274 8.01016 7.86023 8.26339 7.63785C8.51663 7.41547 8.83027 7.27325 9.16453 7.22923C9.49879 7.18521 9.83861 7.24137 10.1409 7.39059C10.4431 7.53981 10.6942 7.77536 10.8623 8.06736L11.5289 9.21512C11.0314 9.30707 10.5606 9.50867 10.1509 9.80527C9.7412 10.1019 9.40282 10.486 9.16039 10.9297C8.87122 10.5861 8.51385 10.3063 8.11088 10.1078L7.91233 9.76774C7.68829 9.37694 7.62716 8.91376 7.74213 8.47829ZM20.7192 32.482C18.5688 33.7209 16.0144 34.0571 13.6162 33.4169C11.218 32.7768 9.17185 31.2124 7.92651 29.067L2.67895 19.9842C2.5672 19.7907 2.4947 19.577 2.46558 19.3555C2.43646 19.134 2.4513 18.9089 2.50925 18.6931C2.56719 18.4773 2.66711 18.2751 2.8033 18.0979C2.93949 17.9206 3.10928 17.772 3.30298 17.6603C3.49668 17.5487 3.71049 17.4762 3.93221 17.4472C4.15393 17.4181 4.37921 17.4329 4.5952 17.4908C4.81118 17.5487 5.01364 17.6485 5.191 17.7846C5.36837 17.9206 5.51718 18.0903 5.62893 18.2838L9.03275 24.1784C9.10748 24.3078 9.21499 24.4151 9.34446 24.4898C9.47392 24.5644 9.62078 24.6036 9.77025 24.6035C9.91923 24.6012 10.0654 24.5623 10.1957 24.4902C10.2926 24.4344 10.3776 24.3601 10.4457 24.2715C10.5138 24.1829 10.5638 24.0817 10.5928 23.9738C10.6218 23.8659 10.6292 23.7534 10.6146 23.6426C10.6 23.5318 10.5637 23.425 10.5077 23.3283L5.11835 14.0045C4.89267 13.6137 4.83162 13.1493 4.94865 12.7135C5.06568 12.2777 5.3512 11.9062 5.74239 11.6807C6.13358 11.4552 6.5984 11.3942 7.0346 11.5111C7.4708 11.628 7.84265 11.9133 8.06833 12.3041L13.4577 21.6279C13.5136 21.7246 13.588 21.8095 13.6767 21.8775C13.7654 21.9455 13.8666 21.9954 13.9746 22.0244C14.0826 22.0533 14.1952 22.0607 14.3061 22.0462C14.4169 22.0317 14.5238 21.9954 14.6207 21.9396C14.7175 21.8838 14.8024 21.8095 14.8705 21.7208C14.9386 21.6322 14.9886 21.5311 15.0176 21.4232C15.0465 21.3153 15.054 21.2028 15.0394 21.092C15.0248 20.9813 14.9886 20.8745 14.9327 20.7777L10.6779 13.4094C10.4539 13.0186 10.3928 12.5554 10.5077 12.1199C10.564 11.9032 10.6634 11.6999 10.7998 11.5222C10.9362 11.3445 11.107 11.196 11.302 11.0855C11.694 10.8636 12.1576 10.8046 12.5928 10.9212C13.028 11.0379 13.3998 11.3208 13.6279 11.709L19.5846 22.0246C19.6593 22.154 19.7668 22.2613 19.8963 22.336C20.0258 22.4106 20.1726 22.4498 20.3221 22.4497C20.4708 22.4457 20.6166 22.4069 20.7476 22.3364C20.9404 22.2211 21.0809 22.0354 21.1391 21.8185C21.1973 21.6017 21.1688 21.3707 21.0596 21.1744L18.7904 17.2352C18.6788 17.0428 18.6065 16.8303 18.5775 16.6098C18.5485 16.3894 18.5634 16.1653 18.6214 15.9507C18.6794 15.736 18.7793 15.5349 18.9154 15.359C19.0515 15.1831 19.2211 15.0357 19.4144 14.9256C19.6056 14.8116 19.8177 14.737 20.0382 14.7059C20.2587 14.6749 20.4831 14.6882 20.6984 14.7449C20.9137 14.8017 21.1155 14.9008 21.292 15.0364C21.4685 15.172 21.6161 15.3415 21.7262 15.5349L24.1372 19.715C24.7528 20.7772 25.1527 21.9503 25.314 23.1672C25.4754 24.384 25.395 25.6207 25.0776 26.8065C24.7601 27.9922 24.2118 29.1039 23.4639 30.0777C22.7161 31.0516 21.7834 31.8686 20.7192 32.482ZM27.1014 24.5327C27.133 22.5429 26.618 20.5825 25.6122 18.8648L23.2012 14.6847C22.8696 14.1112 22.3763 13.6479 21.7829 13.3527L21.5843 13.0126C21.4697 12.8206 21.3954 12.6072 21.3662 12.3854C21.3369 12.1637 21.3532 11.9384 21.4142 11.7232C21.4705 11.5064 21.5698 11.3031 21.7062 11.1255C21.8426 10.9478 22.0134 10.7993 22.2084 10.6888C22.6004 10.4668 23.064 10.4078 23.4992 10.5245C23.9344 10.6411 24.3062 10.9241 24.5343 11.3123L26.9454 15.4782C27.7291 16.8533 28.1542 18.4033 28.1814 19.9855C28.2087 21.5677 27.8373 23.1314 27.1014 24.5327ZM22.6906 4.1565L23.2863 1.96017C23.3644 1.76787 23.5102 1.61075 23.6962 1.51844C23.8823 1.42612 24.0957 1.40497 24.2962 1.45899C24.4968 1.51301 24.6707 1.63845 24.7851 1.81168C24.8994 1.98491 24.9465 2.19397 24.9173 2.39944L24.3358 4.59576C24.2882 4.77663 24.1813 4.93634 24.0322 5.04937C23.8831 5.16239 23.7003 5.2222 23.5132 5.21923C23.4411 5.22375 23.3688 5.21413 23.3004 5.19089C23.0825 5.13421 22.8959 4.99351 22.7816 4.79961C22.6672 4.60572 22.6345 4.37445 22.6906 4.1565ZM26.3922 5.54514L27.6829 3.68889C27.8126 3.50287 28.011 3.37597 28.2345 3.33611C28.4579 3.29625 28.688 3.34669 28.8742 3.47634C29.0604 3.606 29.1874 3.80424 29.2273 4.02746C29.2672 4.25067 29.2167 4.48058 29.0869 4.66661L27.7821 6.52285C27.7054 6.63648 27.6019 6.7295 27.4807 6.79375C27.3595 6.85799 27.2244 6.89148 27.0872 6.89127C26.9103 6.88723 26.7382 6.83318 26.5908 6.7354C26.4089 6.60205 26.2863 6.40297 26.2492 6.18061C26.2121 5.95826 26.2635 5.73023 26.3922 5.54514ZM32.2213 8.22323L30.3634 9.51269C30.2191 9.61693 30.045 9.67163 29.867 9.66855C29.6871 9.66669 29.5124 9.60791 29.368 9.50065C29.2237 9.39339 29.117 9.24317 29.0634 9.07158C29.0099 8.89998 29.0121 8.71584 29.0698 8.54559C29.1276 8.37535 29.2378 8.22777 29.3848 8.12404L31.2427 6.82042C31.4289 6.69077 31.659 6.64032 31.8824 6.68018C32.1058 6.72004 32.3043 6.84694 32.434 7.03297C32.5638 7.21899 32.6143 7.4489 32.5744 7.67212C32.5345 7.89534 32.4075 8.09358 32.2213 8.22323Z"/>
</mask>
<path d="M26.0093 10.4621C25.5564 9.68025 24.8118 9.1096 23.9387 8.87504C23.5075 8.75658 23.0569 8.72564 22.6136 8.78405C22.1702 8.84246 21.7431 8.98904 21.3574 9.21512C20.8389 9.5139 20.4084 9.944 20.1094 10.4621L17.8969 6.63621C17.6736 6.24898 17.376 5.90952 17.0213 5.63725C16.6666 5.36497 16.2616 5.16522 15.8296 5.04941C15.3976 4.93361 14.9469 4.90401 14.5034 4.96233C14.06 5.02064 13.6323 5.16572 13.245 5.38927C12.7059 5.69607 12.2637 6.14769 11.9685 6.69289C11.5643 6.22308 11.0393 5.87252 10.4503 5.67905C9.86119 5.48559 9.23041 5.45657 8.62603 5.59513C8.02166 5.73369 7.46664 6.03457 7.02093 6.46527C6.57521 6.89598 6.25572 7.44015 6.09695 8.03902C5.9407 8.6095 5.9407 9.21144 6.09695 9.78191C5.6708 9.84205 5.26096 9.98657 4.89143 10.207C4.50385 10.4301 4.16409 10.7274 3.89157 11.0818C3.61905 11.4362 3.41912 11.8408 3.3032 12.2724C3.18729 12.704 3.15767 13.1543 3.21604 13.5974C3.27441 14.0405 3.41962 14.4677 3.64337 14.8547L4.15394 15.7332C3.55638 15.7305 2.9689 15.8871 2.45203 16.1867C1.67213 16.6399 1.10324 17.3829 0.869443 18.2536C0.635642 19.1242 0.755888 20.0519 1.20396 20.8344L6.45152 29.9172C7.50622 31.7332 9.05623 33.212 10.9206 34.1809C12.7849 35.1498 14.8867 35.5688 16.9805 35.389C19.0742 35.2093 21.0736 34.4381 22.7452 33.1656C24.4167 31.8932 25.6915 30.1718 26.4206 28.2027C28.225 26.4891 29.4025 24.2208 29.765 21.7601C30.1275 19.2994 29.6541 16.7883 28.4204 14.628L26.0093 10.4621ZM13.3017 7.88316C13.3597 7.66895 13.4598 7.46843 13.5962 7.29327C13.7325 7.11811 13.9024 6.97182 14.0959 6.86293C14.2896 6.75116 14.5034 6.67862 14.7252 6.64946C14.9469 6.6203 15.1722 6.6351 15.3883 6.693C15.6043 6.75091 15.8067 6.85078 15.9841 6.98692C16.1615 7.12306 16.3102 7.29279 16.4219 7.4864L19.6413 13.041C19.2615 13.1165 18.8971 13.2554 18.5635 13.4519C18.0388 13.7427 17.6064 14.1747 17.3154 14.6988L15.1029 10.8588C14.7626 10.2837 14.2659 9.81684 13.6705 9.51269L13.4719 9.18678C13.247 8.79109 13.1859 8.32323 13.3017 7.88316ZM7.74213 8.47829C7.82873 8.15274 8.01016 7.86023 8.26339 7.63785C8.51663 7.41547 8.83027 7.27325 9.16453 7.22923C9.49879 7.18521 9.83861 7.24137 10.1409 7.39059C10.4431 7.53981 10.6942 7.77536 10.8623 8.06736L11.5289 9.21512C11.0314 9.30707 10.5606 9.50867 10.1509 9.80527C9.7412 10.1019 9.40282 10.486 9.16039 10.9297C8.87122 10.5861 8.51385 10.3063 8.11088 10.1078L7.91233 9.76774C7.68829 9.37694 7.62716 8.91376 7.74213 8.47829ZM20.7192 32.482C18.5688 33.7209 16.0144 34.0571 13.6162 33.4169C11.218 32.7768 9.17185 31.2124 7.92651 29.067L2.67895 19.9842C2.5672 19.7907 2.4947 19.577 2.46558 19.3555C2.43646 19.134 2.4513 18.9089 2.50925 18.6931C2.56719 18.4773 2.66711 18.2751 2.8033 18.0979C2.93949 17.9206 3.10928 17.772 3.30298 17.6603C3.49668 17.5487 3.71049 17.4762 3.93221 17.4472C4.15393 17.4181 4.37921 17.4329 4.5952 17.4908C4.81118 17.5487 5.01364 17.6485 5.191 17.7846C5.36837 17.9206 5.51718 18.0903 5.62893 18.2838L9.03275 24.1784C9.10748 24.3078 9.21499 24.4151 9.34446 24.4898C9.47392 24.5644 9.62078 24.6036 9.77025 24.6035C9.91923 24.6012 10.0654 24.5623 10.1957 24.4902C10.2926 24.4344 10.3776 24.3601 10.4457 24.2715C10.5138 24.1829 10.5638 24.0817 10.5928 23.9738C10.6218 23.8659 10.6292 23.7534 10.6146 23.6426C10.6 23.5318 10.5637 23.425 10.5077 23.3283L5.11835 14.0045C4.89267 13.6137 4.83162 13.1493 4.94865 12.7135C5.06568 12.2777 5.3512 11.9062 5.74239 11.6807C6.13358 11.4552 6.5984 11.3942 7.0346 11.5111C7.4708 11.628 7.84265 11.9133 8.06833 12.3041L13.4577 21.6279C13.5136 21.7246 13.588 21.8095 13.6767 21.8775C13.7654 21.9455 13.8666 21.9954 13.9746 22.0244C14.0826 22.0533 14.1952 22.0607 14.3061 22.0462C14.4169 22.0317 14.5238 21.9954 14.6207 21.9396C14.7175 21.8838 14.8024 21.8095 14.8705 21.7208C14.9386 21.6322 14.9886 21.5311 15.0176 21.4232C15.0465 21.3153 15.054 21.2028 15.0394 21.092C15.0248 20.9813 14.9886 20.8745 14.9327 20.7777L10.6779 13.4094C10.4539 13.0186 10.3928 12.5554 10.5077 12.1199C10.564 11.9032 10.6634 11.6999 10.7998 11.5222C10.9362 11.3445 11.107 11.196 11.302 11.0855C11.694 10.8636 12.1576 10.8046 12.5928 10.9212C13.028 11.0379 13.3998 11.3208 13.6279 11.709L19.5846 22.0246C19.6593 22.154 19.7668 22.2613 19.8963 22.336C20.0258 22.4106 20.1726 22.4498 20.3221 22.4497C20.4708 22.4457 20.6166 22.4069 20.7476 22.3364C20.9404 22.2211 21.0809 22.0354 21.1391 21.8185C21.1973 21.6017 21.1688 21.3707 21.0596 21.1744L18.7904 17.2352C18.6788 17.0428 18.6065 16.8303 18.5775 16.6098C18.5485 16.3894 18.5634 16.1653 18.6214 15.9507C18.6794 15.736 18.7793 15.5349 18.9154 15.359C19.0515 15.1831 19.2211 15.0357 19.4144 14.9256C19.6056 14.8116 19.8177 14.737 20.0382 14.7059C20.2587 14.6749 20.4831 14.6882 20.6984 14.7449C20.9137 14.8017 21.1155 14.9008 21.292 15.0364C21.4685 15.172 21.6161 15.3415 21.7262 15.5349L24.1372 19.715C24.7528 20.7772 25.1527 21.9503 25.314 23.1672C25.4754 24.384 25.395 25.6207 25.0776 26.8065C24.7601 27.9922 24.2118 29.1039 23.4639 30.0777C22.7161 31.0516 21.7834 31.8686 20.7192 32.482ZM27.1014 24.5327C27.133 22.5429 26.618 20.5825 25.6122 18.8648L23.2012 14.6847C22.8696 14.1112 22.3763 13.6479 21.7829 13.3527L21.5843 13.0126C21.4697 12.8206 21.3954 12.6072 21.3662 12.3854C21.3369 12.1637 21.3532 11.9384 21.4142 11.7232C21.4705 11.5064 21.5698 11.3031 21.7062 11.1255C21.8426 10.9478 22.0134 10.7993 22.2084 10.6888C22.6004 10.4668 23.064 10.4078 23.4992 10.5245C23.9344 10.6411 24.3062 10.9241 24.5343 11.3123L26.9454 15.4782C27.7291 16.8533 28.1542 18.4033 28.1814 19.9855C28.2087 21.5677 27.8373 23.1314 27.1014 24.5327ZM22.6906 4.1565L23.2863 1.96017C23.3644 1.76787 23.5102 1.61075 23.6962 1.51844C23.8823 1.42612 24.0957 1.40497 24.2962 1.45899C24.4968 1.51301 24.6707 1.63845 24.7851 1.81168C24.8994 1.98491 24.9465 2.19397 24.9173 2.39944L24.3358 4.59576C24.2882 4.77663 24.1813 4.93634 24.0322 5.04937C23.8831 5.16239 23.7003 5.2222 23.5132 5.21923C23.4411 5.22375 23.3688 5.21413 23.3004 5.19089C23.0825 5.13421 22.8959 4.99351 22.7816 4.79961C22.6672 4.60572 22.6345 4.37445 22.6906 4.1565ZM26.3922 5.54514L27.6829 3.68889C27.8126 3.50287 28.011 3.37597 28.2345 3.33611C28.4579 3.29625 28.688 3.34669 28.8742 3.47634C29.0604 3.606 29.1874 3.80424 29.2273 4.02746C29.2672 4.25067 29.2167 4.48058 29.0869 4.66661L27.7821 6.52285C27.7054 6.63648 27.6019 6.7295 27.4807 6.79375C27.3595 6.85799 27.2244 6.89148 27.0872 6.89127C26.9103 6.88723 26.7382 6.83318 26.5908 6.7354C26.4089 6.60205 26.2863 6.40297 26.2492 6.18061C26.2121 5.95826 26.2635 5.73023 26.3922 5.54514ZM32.2213 8.22323L30.3634 9.51269C30.2191 9.61693 30.045 9.67163 29.867 9.66855C29.6871 9.66669 29.5124 9.60791 29.368 9.50065C29.2237 9.39339 29.117 9.24317 29.0634 9.07158C29.0099 8.89998 29.0121 8.71584 29.0698 8.54559C29.1276 8.37535 29.2378 8.22777 29.3848 8.12404L31.2427 6.82042C31.4289 6.69077 31.659 6.64032 31.8824 6.68018C32.1058 6.72004 32.3043 6.84694 32.434 7.03297C32.5638 7.21899 32.6143 7.4489 32.5744 7.67212C32.5345 7.89534 32.4075 8.09358 32.2213 8.22323Z" fill="#327AEB"/>
<path d="M26.0093 10.4621C25.5564 9.68025 24.8118 9.1096 23.9387 8.87504C23.5075 8.75658 23.0569 8.72564 22.6136 8.78405C22.1702 8.84246 21.7431 8.98904 21.3574 9.21512C20.8389 9.5139 20.4084 9.944 20.1094 10.4621L17.8969 6.63621C17.6736 6.24898 17.376 5.90952 17.0213 5.63725C16.6666 5.36497 16.2616 5.16522 15.8296 5.04941C15.3976 4.93361 14.9469 4.90401 14.5034 4.96233C14.06 5.02064 13.6323 5.16572 13.245 5.38927C12.7059 5.69607 12.2637 6.14769 11.9685 6.69289C11.5643 6.22308 11.0393 5.87252 10.4503 5.67905C9.86119 5.48559 9.23041 5.45657 8.62603 5.59513C8.02166 5.73369 7.46664 6.03457 7.02093 6.46527C6.57521 6.89598 6.25572 7.44015 6.09695 8.03902C5.9407 8.6095 5.9407 9.21144 6.09695 9.78191C5.6708 9.84205 5.26096 9.98657 4.89143 10.207C4.50385 10.4301 4.16409 10.7274 3.89157 11.0818C3.61905 11.4362 3.41912 11.8408 3.3032 12.2724C3.18729 12.704 3.15767 13.1543 3.21604 13.5974C3.27441 14.0405 3.41962 14.4677 3.64337 14.8547L4.15394 15.7332C3.55638 15.7305 2.9689 15.8871 2.45203 16.1867C1.67213 16.6399 1.10324 17.3829 0.869443 18.2536C0.635642 19.1242 0.755888 20.0519 1.20396 20.8344L6.45152 29.9172C7.50622 31.7332 9.05623 33.212 10.9206 34.1809C12.7849 35.1498 14.8867 35.5688 16.9805 35.389C19.0742 35.2093 21.0736 34.4381 22.7452 33.1656C24.4167 31.8932 25.6915 30.1718 26.4206 28.2027C28.225 26.4891 29.4025 24.2208 29.765 21.7601C30.1275 19.2994 29.6541 16.7883 28.4204 14.628L26.0093 10.4621ZM13.3017 7.88316C13.3597 7.66895 13.4598 7.46843 13.5962 7.29327C13.7325 7.11811 13.9024 6.97182 14.0959 6.86293C14.2896 6.75116 14.5034 6.67862 14.7252 6.64946C14.9469 6.6203 15.1722 6.6351 15.3883 6.693C15.6043 6.75091 15.8067 6.85078 15.9841 6.98692C16.1615 7.12306 16.3102 7.29279 16.4219 7.4864L19.6413 13.041C19.2615 13.1165 18.8971 13.2554 18.5635 13.4519C18.0388 13.7427 17.6064 14.1747 17.3154 14.6988L15.1029 10.8588C14.7626 10.2837 14.2659 9.81684 13.6705 9.51269L13.4719 9.18678C13.247 8.79109 13.1859 8.32323 13.3017 7.88316ZM7.74213 8.47829C7.82873 8.15274 8.01016 7.86023 8.26339 7.63785C8.51663 7.41547 8.83027 7.27325 9.16453 7.22923C9.49879 7.18521 9.83861 7.24137 10.1409 7.39059C10.4431 7.53981 10.6942 7.77536 10.8623 8.06736L11.5289 9.21512C11.0314 9.30707 10.5606 9.50867 10.1509 9.80527C9.7412 10.1019 9.40282 10.486 9.16039 10.9297C8.87122 10.5861 8.51385 10.3063 8.11088 10.1078L7.91233 9.76774C7.68829 9.37694 7.62716 8.91376 7.74213 8.47829ZM20.7192 32.482C18.5688 33.7209 16.0144 34.0571 13.6162 33.4169C11.218 32.7768 9.17185 31.2124 7.92651 29.067L2.67895 19.9842C2.5672 19.7907 2.4947 19.577 2.46558 19.3555C2.43646 19.134 2.4513 18.9089 2.50925 18.6931C2.56719 18.4773 2.66711 18.2751 2.8033 18.0979C2.93949 17.9206 3.10928 17.772 3.30298 17.6603C3.49668 17.5487 3.71049 17.4762 3.93221 17.4472C4.15393 17.4181 4.37921 17.4329 4.5952 17.4908C4.81118 17.5487 5.01364 17.6485 5.191 17.7846C5.36837 17.9206 5.51718 18.0903 5.62893 18.2838L9.03275 24.1784C9.10748 24.3078 9.21499 24.4151 9.34446 24.4898C9.47392 24.5644 9.62078 24.6036 9.77025 24.6035C9.91923 24.6012 10.0654 24.5623 10.1957 24.4902C10.2926 24.4344 10.3776 24.3601 10.4457 24.2715C10.5138 24.1829 10.5638 24.0817 10.5928 23.9738C10.6218 23.8659 10.6292 23.7534 10.6146 23.6426C10.6 23.5318 10.5637 23.425 10.5077 23.3283L5.11835 14.0045C4.89267 13.6137 4.83162 13.1493 4.94865 12.7135C5.06568 12.2777 5.3512 11.9062 5.74239 11.6807C6.13358 11.4552 6.5984 11.3942 7.0346 11.5111C7.4708 11.628 7.84265 11.9133 8.06833 12.3041L13.4577 21.6279C13.5136 21.7246 13.588 21.8095 13.6767 21.8775C13.7654 21.9455 13.8666 21.9954 13.9746 22.0244C14.0826 22.0533 14.1952 22.0607 14.3061 22.0462C14.4169 22.0317 14.5238 21.9954 14.6207 21.9396C14.7175 21.8838 14.8024 21.8095 14.8705 21.7208C14.9386 21.6322 14.9886 21.5311 15.0176 21.4232C15.0465 21.3153 15.054 21.2028 15.0394 21.092C15.0248 20.9813 14.9886 20.8745 14.9327 20.7777L10.6779 13.4094C10.4539 13.0186 10.3928 12.5554 10.5077 12.1199C10.564 11.9032 10.6634 11.6999 10.7998 11.5222C10.9362 11.3445 11.107 11.196 11.302 11.0855C11.694 10.8636 12.1576 10.8046 12.5928 10.9212C13.028 11.0379 13.3998 11.3208 13.6279 11.709L19.5846 22.0246C19.6593 22.154 19.7668 22.2613 19.8963 22.336C20.0258 22.4106 20.1726 22.4498 20.3221 22.4497C20.4708 22.4457 20.6166 22.4069 20.7476 22.3364C20.9404 22.2211 21.0809 22.0354 21.1391 21.8185C21.1973 21.6017 21.1688 21.3707 21.0596 21.1744L18.7904 17.2352C18.6788 17.0428 18.6065 16.8303 18.5775 16.6098C18.5485 16.3894 18.5634 16.1653 18.6214 15.9507C18.6794 15.736 18.7793 15.5349 18.9154 15.359C19.0515 15.1831 19.2211 15.0357 19.4144 14.9256C19.6056 14.8116 19.8177 14.737 20.0382 14.7059C20.2587 14.6749 20.4831 14.6882 20.6984 14.7449C20.9137 14.8017 21.1155 14.9008 21.292 15.0364C21.4685 15.172 21.6161 15.3415 21.7262 15.5349L24.1372 19.715C24.7528 20.7772 25.1527 21.9503 25.314 23.1672C25.4754 24.384 25.395 25.6207 25.0776 26.8065C24.7601 27.9922 24.2118 29.1039 23.4639 30.0777C22.7161 31.0516 21.7834 31.8686 20.7192 32.482ZM27.1014 24.5327C27.133 22.5429 26.618 20.5825 25.6122 18.8648L23.2012 14.6847C22.8696 14.1112 22.3763 13.6479 21.7829 13.3527L21.5843 13.0126C21.4697 12.8206 21.3954 12.6072 21.3662 12.3854C21.3369 12.1637 21.3532 11.9384 21.4142 11.7232C21.4705 11.5064 21.5698 11.3031 21.7062 11.1255C21.8426 10.9478 22.0134 10.7993 22.2084 10.6888C22.6004 10.4668 23.064 10.4078 23.4992 10.5245C23.9344 10.6411 24.3062 10.9241 24.5343 11.3123L26.9454 15.4782C27.7291 16.8533 28.1542 18.4033 28.1814 19.9855C28.2087 21.5677 27.8373 23.1314 27.1014 24.5327ZM22.6906 4.1565L23.2863 1.96017C23.3644 1.76787 23.5102 1.61075 23.6962 1.51844C23.8823 1.42612 24.0957 1.40497 24.2962 1.45899C24.4968 1.51301 24.6707 1.63845 24.7851 1.81168C24.8994 1.98491 24.9465 2.19397 24.9173 2.39944L24.3358 4.59576C24.2882 4.77663 24.1813 4.93634 24.0322 5.04937C23.8831 5.16239 23.7003 5.2222 23.5132 5.21923C23.4411 5.22375 23.3688 5.21413 23.3004 5.19089C23.0825 5.13421 22.8959 4.99351 22.7816 4.79961C22.6672 4.60572 22.6345 4.37445 22.6906 4.1565ZM26.3922 5.54514L27.6829 3.68889C27.8126 3.50287 28.011 3.37597 28.2345 3.33611C28.4579 3.29625 28.688 3.34669 28.8742 3.47634C29.0604 3.606 29.1874 3.80424 29.2273 4.02746C29.2672 4.25067 29.2167 4.48058 29.0869 4.66661L27.7821 6.52285C27.7054 6.63648 27.6019 6.7295 27.4807 6.79375C27.3595 6.85799 27.2244 6.89148 27.0872 6.89127C26.9103 6.88723 26.7382 6.83318 26.5908 6.7354C26.4089 6.60205 26.2863 6.40297 26.2492 6.18061C26.2121 5.95826 26.2635 5.73023 26.3922 5.54514ZM32.2213 8.22323L30.3634 9.51269C30.2191 9.61693 30.045 9.67163 29.867 9.66855C29.6871 9.66669 29.5124 9.60791 29.368 9.50065C29.2237 9.39339 29.117 9.24317 29.0634 9.07158C29.0099 8.89998 29.0121 8.71584 29.0698 8.54559C29.1276 8.37535 29.2378 8.22777 29.3848 8.12404L31.2427 6.82042C31.4289 6.69077 31.659 6.64032 31.8824 6.68018C32.1058 6.72004 32.3043 6.84694 32.434 7.03297C32.5638 7.21899 32.6143 7.4489 32.5744 7.67212C32.5345 7.89534 32.4075 8.09358 32.2213 8.22323Z" stroke="#327AEB" mask="url(#path-1-outside-1_52_1348)"/>
</svg>