<svg xmlns="http://www.w3.org/2000/svg" width="46" height="47" viewBox="0 0 46 47" fill="none">
<circle cx="23.3677" cy="23.5259" r="22.6323" fill="#0050CE"/>
<path d="M29.0109 38.9133H17.2536C16.613 38.694 16.5353 37.6903 16.5765 37.2158V17.9311C17.0765 15.2784 19.6392 14.2143 20.8581 14.0138V12.1297C20.9606 11.4974 21.6985 11.3738 22.0546 11.391V10.0325H20.038C18.4248 9.07635 19.3659 8.37123 20.038 8.13818H26.4963C28.1685 8.80569 27.193 9.67918 26.4963 10.0325H24.6555V11.2277C25.579 11.2096 25.8662 11.8215 25.8944 12.1297V14.0138C28.4425 14.54 29.8026 16.8446 30.1641 17.9311C30.1641 17.9311 30.0873 35.8264 30.1641 37.2158C30.2257 38.3273 29.4209 38.8106 29.0109 38.9133Z" fill="#D9D9D9"/>
</svg>