<svg xmlns="http://www.w3.org/2000/svg" width="46" height="47" viewBox="0 0 46 47" fill="none">
<circle cx="23" cy="23.5259" r="22.6323" fill="#6DA6FF"/>
<path d="M34.9852 28.7524C26.9027 31.0108 14.5712 29.6934 10.7085 28.7524C15.9382 30.06 21.7618 37.256 23.2971 40.2769C25.4365 35.0472 32.3605 30.1391 34.9852 28.7524Z" fill="#FE6A6A"/>
<path d="M16.2536 15.4854L17.6667 9.03857H19.521C18.7555 11.3347 17.3131 15.9271 17.6667 15.9271C18.0202 15.9271 20.6629 20.6034 21.8991 23.0762C22.351 23.9802 22.9123 24.6879 24.4666 23.3456C26.021 22.0032 28.117 17.8406 28.9707 15.9271L26.8511 9.03857H28.9707L30.2954 15.9271C31.6496 15.9565 34.4286 17.1811 34.7112 21.8442C34.9938 26.5072 28.2936 25.9067 24.9082 25.0235H22.5237C19.8145 25.0235 12.8975 25.8184 11.4844 23.3456C10.354 21.3673 14.1929 17.2811 16.2536 15.4854Z" fill="#FE6A6A"/>
</svg>