<svg xmlns="http://www.w3.org/2000/svg" width="46" height="47" viewBox="0 0 46 47" fill="none">
<circle cx="23.3677" cy="23.5259" r="22.6323" fill="#327AEB"/>
<path d="M25.285 7.14551C22.9521 7.59416 20.8877 7.33244 20.1471 7.14551C16.0161 7.65241 15.0953 8.8863 14.0546 10.0101C13.2221 10.9092 12.8507 20.0049 12.769 24.4403H15.0953C15.6259 20.6942 16.7849 13.1749 17.1767 13.067C17.6665 12.9321 18.5847 16.978 18.1562 18.7841C17.8134 20.2289 16.3038 34.2642 16.8783 39.1825L20.2436 39.9058C20.8558 36.7911 22.6742 26.8768 23.6047 26.9128C24.5352 26.9488 25.2936 36.8211 25.6609 39.9058L29.1082 39.1825C30.1875 33.8719 28.7896 21.1786 28.2588 18.7841C27.7279 16.3895 28.7617 13.2898 29.4442 13.067C29.9902 12.8888 30.7576 20.424 31.8988 24.9096H33.8705C34.3256 24.5198 33.0614 12.9578 32.2977 10.2556C31.6867 8.09385 27.368 7.28148 25.285 7.14551Z" fill="black" stroke="black" stroke-width="0.157841"/>
</svg>