<svg xmlns="http://www.w3.org/2000/svg" width="24" height="25" viewBox="0 0 24 25" fill="none">
<path fill-rule="evenodd" clip-rule="evenodd" d="M11.9999 13.1718C11.6392 13.1787 11.2807 13.1136 10.9454 12.9804C10.6102 12.8471 10.3048 12.6483 10.0472 12.3957C9.78969 12.143 9.5851 11.8415 9.44543 11.5089C9.30577 11.1762 9.23383 10.8191 9.23383 10.4583C9.23383 10.0975 9.30577 9.7403 9.44543 9.40764C9.5851 9.07497 9.78969 8.7735 10.0472 8.52084C10.3048 8.26818 10.6102 8.06941 10.9454 7.93616C11.2807 7.8029 11.6392 7.73783 11.9999 7.74476C12.7106 7.7584 13.3875 8.05028 13.8852 8.55768C14.383 9.06507 14.6618 9.74748 14.6618 10.4583C14.6618 11.169 14.383 11.8514 13.8852 12.3588C13.3875 12.8662 12.7106 13.1581 11.9999 13.1718M9.87592 1.46676C5.60592 2.41976 2.61192 6.43876 2.77992 10.8108C2.91192 14.2448 5.01892 17.3168 11.2879 23.3438C11.6839 23.7238 12.3179 23.7258 12.7149 23.3448C19.1989 17.1118 21.2309 14.0398 21.2309 10.4578C21.2309 4.66776 15.8979 0.122759 9.87592 1.46776" fill="white"/>
</svg>