<svg width="41" height="41" viewBox="0 0 41 41" fill="none" xmlns="http://www.w3.org/2000/svg">
<g id="icon-x-mono" clip-path="url(#clip0_41_530)">
<path id="Vector" fill-rule="evenodd" clip-rule="evenodd" d="M21.9833 18.929L21.9833 9.60532C21.9833 9.42142 21.9472 9.23931 21.8768 9.06939C21.8065 8.89947 21.7034 8.74507 21.5734 8.61499C21.4434 8.48492 21.2891 8.38172 21.1192 8.3113C20.9493 8.24087 20.7672 8.2046 20.5833 8.20454C20.3994 8.20449 20.2173 8.24066 20.0474 8.31098C19.8775 8.38131 19.7231 8.48441 19.593 8.61441C19.4629 8.74441 19.3597 8.89875 19.2893 9.06863C19.2189 9.23851 19.1826 9.4206 19.1825 9.6045L19.1834 18.929L9.85804 18.929C9.49484 18.9414 9.15066 19.0944 8.89815 19.3558C8.64563 19.6171 8.50454 19.9663 8.50464 20.3298C8.50475 20.6932 8.64605 21.0423 8.89872 21.3035C9.15139 21.5647 9.49566 21.7176 9.85887 21.7297L19.1834 21.7289L19.1825 31.0534C19.1835 31.33 19.2662 31.6001 19.4203 31.8297C19.5743 32.0594 19.7928 32.2384 20.0484 32.3442C20.3039 32.45 20.585 32.4779 20.8563 32.4244C21.1276 32.3708 21.3771 32.2383 21.5733 32.0434C21.8265 31.7901 21.9833 31.4403 21.9833 31.0542L21.9833 21.7289L31.3078 21.7297C31.4917 21.73 31.6739 21.694 31.8439 21.6238C32.0139 21.5535 32.1683 21.4504 32.2984 21.3204C32.4284 21.1903 32.5315 21.0359 32.6018 20.8659C32.672 20.6959 32.708 20.5137 32.7077 20.3298C32.7078 20.1458 32.6717 19.9636 32.6013 19.7936C32.5309 19.6236 32.4278 19.4691 32.2977 19.339C32.1676 19.209 32.0131 19.1058 31.8431 19.0354C31.6731 18.9651 31.4909 18.9289 31.3069 18.929L21.9833 18.929Z" fill="white"/>
</g>
<defs>
<clipPath id="clip0_41_530">
<rect width="28" height="28" fill="white" transform="translate(0.687012 20.4263) rotate(-45)"/>
</clipPath>
</defs>
</svg>
