<svg xmlns="http://www.w3.org/2000/svg" width="33" height="35" viewBox="0 0 33 35" fill="none">
<path d="M25.9168 9.46206C25.4638 8.68025 24.7193 8.1096 23.8461 7.87504C23.415 7.75658 22.9644 7.72564 22.5211 7.78405C22.0777 7.84246 21.6506 7.98904 21.2649 8.21512C20.7464 8.5139 20.3159 8.944 20.0168 9.46206L17.8043 5.63621C17.581 5.24898 17.2835 4.90952 16.9288 4.63725C16.5741 4.36497 16.1691 4.16522 15.7371 4.04941C15.305 3.93361 14.8544 3.90401 14.4109 3.96233C13.9674 4.02064 13.5398 4.16572 13.1525 4.38927C12.6134 4.69607 12.1712 5.14769 11.876 5.69289C11.4718 5.22308 10.9468 4.87252 10.3577 4.67905C9.76867 4.48559 9.13788 4.45657 8.5335 4.59513C7.92913 4.73369 7.37411 5.03457 6.9284 5.46527C6.48268 5.89598 6.16319 6.44015 6.00442 7.03902C5.84817 7.6095 5.84817 8.21144 6.00442 8.78191C5.57827 8.84205 5.16843 8.98657 4.7989 9.20701C4.41132 9.43012 4.07156 9.72738 3.79904 10.0818C3.52652 10.4362 3.32659 10.8408 3.21067 11.2724C3.09476 11.704 3.06514 12.1543 3.12351 12.5974C3.18188 13.0405 3.32709 13.4677 3.55084 13.8547L4.06141 14.7332C3.46385 14.7305 2.87637 14.8871 2.3595 15.1867C1.5796 15.6399 1.01072 16.3829 0.776914 17.2536C0.543113 18.1242 0.663359 19.0519 1.11143 19.8344L6.35899 28.9172C7.41369 30.7332 8.96371 32.212 10.8281 33.1809C12.6924 34.1498 14.7942 34.5688 16.8879 34.389C18.9817 34.2093 20.9811 33.4381 22.6526 32.1656C24.3242 30.8932 25.599 29.1718 26.3281 27.2027C28.1325 25.4891 29.31 23.2208 29.6725 20.7601C30.035 18.2994 29.5615 15.7883 28.3278 13.628L25.9168 9.46206ZM13.2092 6.88316C13.2672 6.66895 13.3673 6.46843 13.5036 6.29327C13.64 6.11811 13.8099 5.97182 14.0034 5.86293C14.1971 5.75116 14.4109 5.67862 14.6326 5.64946C14.8544 5.6203 15.0797 5.6351 15.2957 5.693C15.5117 5.75091 15.7142 5.85078 15.8916 5.98692C16.0689 6.12306 16.2177 6.29279 16.3294 6.4864L19.5488 12.041C19.1689 12.1165 18.8046 12.2554 18.4709 12.4519C17.9463 12.7427 17.5139 13.1747 17.2229 13.6988L15.0104 9.85882C14.6701 9.28365 14.1733 8.81684 13.5779 8.51269L13.3794 8.18678C13.1545 7.79109 13.0934 7.32323 13.2092 6.88316ZM7.6496 7.47829C7.7362 7.15274 7.91763 6.86023 8.17086 6.63785C8.4241 6.41547 8.73774 6.27325 9.072 6.22923C9.40626 6.18521 9.74608 6.24137 10.0483 6.39059C10.3506 6.53981 10.6017 6.77536 10.7698 7.06736L11.4364 8.21512C10.9388 8.30707 10.4681 8.50867 10.0584 8.80527C9.64868 9.10186 9.31029 9.48597 9.06786 9.92967C8.77869 9.58614 8.42132 9.30629 8.01835 9.10782L7.8198 8.76774C7.59576 8.37694 7.53463 7.91376 7.6496 7.47829ZM20.6267 31.482C18.4763 32.7209 15.9219 33.0571 13.5237 32.4169C11.1255 31.7768 9.07932 30.2124 7.83398 28.067L2.58642 18.9842C2.47467 18.7907 2.40217 18.577 2.37305 18.3555C2.34393 18.134 2.35877 17.9089 2.41672 17.6931C2.47466 17.4773 2.57459 17.2751 2.71078 17.0979C2.84696 16.9206 3.01676 16.772 3.21045 16.6603C3.40415 16.5487 3.61796 16.4762 3.83968 16.4472C4.0614 16.4181 4.28668 16.4329 4.50267 16.4908C4.71865 16.5487 4.92111 16.6485 5.09848 16.7846C5.27584 16.9206 5.42465 17.0903 5.5364 17.2838L8.94022 23.1784C9.01495 23.3078 9.12246 23.4151 9.25193 23.4898C9.38139 23.5644 9.52825 23.6036 9.67772 23.6035C9.82671 23.6012 9.97283 23.5623 10.1032 23.4902C10.2001 23.4344 10.285 23.3601 10.3532 23.2715C10.4213 23.1829 10.4713 23.0817 10.5003 22.9738C10.5292 22.8659 10.5366 22.7534 10.522 22.6426C10.5075 22.5318 10.4711 22.425 10.4152 22.3283L5.02583 13.0045C4.80014 12.6137 4.73909 12.1493 4.85612 11.7135C4.97315 11.2777 5.25867 10.9062 5.64986 10.6807C6.04105 10.4552 6.50587 10.3942 6.94207 10.5111C7.37827 10.628 7.75012 10.9133 7.9758 11.3041L13.3652 20.6279C13.4211 20.7246 13.4955 20.8095 13.5842 20.8775C13.6728 20.9455 13.7741 20.9954 13.8821 21.0244C13.99 21.0533 14.1027 21.0607 14.2135 21.0462C14.3244 21.0317 14.4313 20.9954 14.5282 20.9396C14.625 20.8838 14.7099 20.8095 14.778 20.7208C14.8461 20.6322 14.8961 20.5311 14.925 20.4232C14.954 20.3153 14.9614 20.2028 14.9469 20.092C14.9323 19.9813 14.8961 19.8745 14.8402 19.7777L10.5854 12.4094C10.3614 12.0186 10.3002 11.5554 10.4152 11.1199C10.4715 10.9032 10.5708 10.6999 10.7073 10.5222C10.8437 10.3445 11.0145 10.196 11.2094 10.0855C11.6014 9.86358 12.0651 9.80456 12.5002 9.92121C12.9354 10.0379 13.3072 10.3208 13.5354 10.709L19.4921 21.0246C19.5668 21.154 19.6743 21.2613 19.8038 21.336C19.9332 21.4106 20.0801 21.4498 20.2296 21.4497C20.3783 21.4457 20.5241 21.4069 20.655 21.3364C20.8479 21.2211 20.9883 21.0354 21.0466 20.8185C21.1048 20.6017 21.0763 20.3707 20.9671 20.1744L18.6978 16.2352C18.5863 16.0428 18.514 15.8303 18.485 15.6098C18.456 15.3894 18.4709 15.1653 18.5289 14.9507C18.5869 14.736 18.6868 14.5349 18.8229 14.359C18.959 14.1831 19.1286 14.0357 19.3219 13.9256C19.5131 13.8116 19.7252 13.737 19.9457 13.7059C20.1661 13.6749 20.3906 13.6882 20.6059 13.7449C20.8212 13.8017 21.023 13.9008 21.1995 14.0364C21.3759 14.172 21.5235 14.3415 21.6336 14.5349L24.0447 18.715C24.6602 19.7772 25.0601 20.9503 25.2215 22.1672C25.3829 23.384 25.3025 24.6207 24.985 25.8065C24.6676 26.9922 24.1192 28.1039 23.3714 29.0777C22.6235 30.0516 21.6909 30.8686 20.6267 31.482ZM27.0088 23.5327C27.0405 21.5429 26.5254 19.5825 25.5197 17.8648L23.1086 13.6847C22.777 13.1112 22.2838 12.6479 21.6904 12.3527L21.4918 12.0126C21.3771 11.8206 21.3029 11.6072 21.2736 11.3854C21.2444 11.1637 21.2607 10.9384 21.3216 10.7232C21.3779 10.5064 21.4772 10.3031 21.6137 10.1255C21.7501 9.94776 21.9209 9.79927 22.1158 9.68878C22.5078 9.46683 22.9715 9.4078 23.4067 9.52445C23.8418 9.6411 24.2136 9.92407 24.4418 10.3123L26.8528 14.4782C27.6366 15.8533 28.0616 17.4033 28.0889 18.9855C28.1162 20.5677 27.7448 22.1314 27.0088 23.5327ZM22.5981 3.1565L23.1937 0.960174C23.2718 0.767871 23.4177 0.610754 23.6037 0.518436C23.7897 0.426118 24.0031 0.404974 24.2037 0.458991C24.4043 0.513007 24.5781 0.638452 24.6925 0.811683C24.8069 0.984913 24.8539 1.19397 24.8247 1.39944L24.2432 3.59576C24.1957 3.77663 24.0888 3.93634 23.9397 4.04937C23.7905 4.16239 23.6078 4.2222 23.4206 4.21923C23.3486 4.22375 23.2763 4.21413 23.2079 4.19089C22.9899 4.13421 22.8033 3.99351 22.689 3.79961C22.5747 3.60572 22.542 3.37445 22.5981 3.1565ZM26.2997 4.54514L27.5903 2.68889C27.7201 2.50287 27.9185 2.37597 28.1419 2.33611C28.3654 2.29625 28.5955 2.34669 28.7817 2.47634C28.9679 2.606 29.0949 2.80424 29.1348 3.02746C29.1747 3.25067 29.1242 3.48058 28.9944 3.66661L27.6896 5.52285C27.6129 5.63648 27.5094 5.7295 27.3882 5.79375C27.267 5.85799 27.1318 5.89148 26.9947 5.89127C26.8178 5.88723 26.6457 5.83318 26.4983 5.7354C26.3164 5.60205 26.1938 5.40297 26.1567 5.18061C26.1196 4.95826 26.1709 4.73023 26.2997 4.54514ZM32.1288 7.22323L30.2708 8.51269C30.1266 8.61693 29.9524 8.67163 29.7744 8.66855C29.5945 8.66669 29.4199 8.60791 29.2755 8.50065C29.1311 8.39339 29.0245 8.24317 28.9709 8.07158C28.9173 7.89998 28.9196 7.71584 28.9773 7.54559C29.035 7.37535 29.1453 7.22777 29.2922 7.12404L31.1502 5.82042C31.3364 5.69077 31.5665 5.64032 31.7899 5.68018C32.0133 5.72004 32.2117 5.84694 32.3415 6.03297C32.4713 6.21899 32.5218 6.4489 32.4819 6.67212C32.442 6.89534 32.315 7.09358 32.1288 7.22323Z" fill="black"/>
<path d="M25.9168 9.46206C25.4638 8.68025 24.7193 8.1096 23.8461 7.87504C23.415 7.75658 22.9644 7.72564 22.5211 7.78405C22.0777 7.84246 21.6506 7.98904 21.2649 8.21512C20.7464 8.5139 20.3159 8.944 20.0168 9.46206L17.8043 5.63621C17.581 5.24898 17.2835 4.90952 16.9288 4.63725C16.5741 4.36497 16.1691 4.16522 15.7371 4.04941C15.305 3.93361 14.8544 3.90401 14.4109 3.96233C13.9674 4.02064 13.5398 4.16572 13.1525 4.38927C12.6134 4.69607 12.1712 5.14769 11.876 5.69289C11.4718 5.22308 10.9468 4.87252 10.3577 4.67905C9.76867 4.48559 9.13788 4.45657 8.5335 4.59513C7.92913 4.73369 7.37411 5.03457 6.9284 5.46527C6.48268 5.89598 6.16319 6.44015 6.00442 7.03902C5.84817 7.6095 5.84817 8.21144 6.00442 8.78191C5.57827 8.84205 5.16843 8.98657 4.7989 9.20701C4.41132 9.43012 4.07156 9.72738 3.79904 10.0818C3.52652 10.4362 3.32659 10.8408 3.21067 11.2724C3.09476 11.704 3.06514 12.1543 3.12351 12.5974C3.18188 13.0405 3.32709 13.4677 3.55084 13.8547L4.06141 14.7332C3.46385 14.7305 2.87637 14.8871 2.3595 15.1867C1.5796 15.6399 1.01072 16.3829 0.776914 17.2536C0.543113 18.1242 0.663359 19.0519 1.11143 19.8344L6.35899 28.9172C7.41369 30.7332 8.96371 32.212 10.8281 33.1809C12.6924 34.1498 14.7942 34.5688 16.8879 34.389C18.9817 34.2093 20.9811 33.4381 22.6526 32.1656C24.3242 30.8932 25.599 29.1718 26.3281 27.2027C28.1325 25.4891 29.31 23.2208 29.6725 20.7601C30.035 18.2994 29.5615 15.7883 28.3278 13.628L25.9168 9.46206ZM13.2092 6.88316C13.2672 6.66895 13.3673 6.46843 13.5036 6.29327C13.64 6.11811 13.8099 5.97182 14.0034 5.86293C14.1971 5.75116 14.4109 5.67862 14.6326 5.64946C14.8544 5.6203 15.0797 5.6351 15.2957 5.693C15.5117 5.75091 15.7142 5.85078 15.8916 5.98692C16.0689 6.12306 16.2177 6.29279 16.3294 6.4864L19.5488 12.041C19.1689 12.1165 18.8046 12.2554 18.4709 12.4519C17.9463 12.7427 17.5139 13.1747 17.2229 13.6988L15.0104 9.85882C14.6701 9.28365 14.1733 8.81684 13.5779 8.51269L13.3794 8.18678C13.1545 7.79109 13.0934 7.32323 13.2092 6.88316ZM7.6496 7.47829C7.7362 7.15274 7.91763 6.86023 8.17086 6.63785C8.4241 6.41547 8.73774 6.27325 9.072 6.22923C9.40626 6.18521 9.74608 6.24137 10.0483 6.39059C10.3506 6.53981 10.6017 6.77536 10.7698 7.06736L11.4364 8.21512C10.9388 8.30707 10.4681 8.50867 10.0584 8.80527C9.64868 9.10186 9.31029 9.48597 9.06786 9.92967C8.77869 9.58614 8.42132 9.30629 8.01835 9.10782L7.8198 8.76774C7.59576 8.37694 7.53463 7.91376 7.6496 7.47829ZM20.6267 31.482C18.4763 32.7209 15.9219 33.0571 13.5237 32.4169C11.1255 31.7768 9.07932 30.2124 7.83398 28.067L2.58642 18.9842C2.47467 18.7907 2.40217 18.577 2.37305 18.3555C2.34393 18.134 2.35877 17.9089 2.41672 17.6931C2.47466 17.4773 2.57459 17.2751 2.71078 17.0979C2.84696 16.9206 3.01676 16.772 3.21045 16.6603C3.40415 16.5487 3.61796 16.4762 3.83968 16.4472C4.0614 16.4181 4.28668 16.4329 4.50267 16.4908C4.71865 16.5487 4.92111 16.6485 5.09848 16.7846C5.27584 16.9206 5.42465 17.0903 5.5364 17.2838L8.94022 23.1784C9.01495 23.3078 9.12246 23.4151 9.25193 23.4898C9.38139 23.5644 9.52825 23.6036 9.67772 23.6035C9.82671 23.6012 9.97283 23.5623 10.1032 23.4902C10.2001 23.4344 10.285 23.3601 10.3532 23.2715C10.4213 23.1829 10.4713 23.0817 10.5003 22.9738C10.5292 22.8659 10.5366 22.7534 10.522 22.6426C10.5075 22.5318 10.4711 22.425 10.4152 22.3283L5.02583 13.0045C4.80014 12.6137 4.73909 12.1493 4.85612 11.7135C4.97315 11.2777 5.25867 10.9062 5.64986 10.6807C6.04105 10.4552 6.50587 10.3942 6.94207 10.5111C7.37827 10.628 7.75012 10.9133 7.9758 11.3041L13.3652 20.6279C13.4211 20.7246 13.4955 20.8095 13.5842 20.8775C13.6728 20.9455 13.7741 20.9954 13.8821 21.0244C13.99 21.0533 14.1027 21.0607 14.2135 21.0462C14.3244 21.0317 14.4313 20.9954 14.5282 20.9396C14.625 20.8838 14.7099 20.8095 14.778 20.7208C14.8461 20.6322 14.8961 20.5311 14.925 20.4232C14.954 20.3153 14.9614 20.2028 14.9469 20.092C14.9323 19.9813 14.8961 19.8745 14.8402 19.7777L10.5854 12.4094C10.3614 12.0186 10.3002 11.5554 10.4152 11.1199C10.4715 10.9032 10.5708 10.6999 10.7073 10.5222C10.8437 10.3445 11.0145 10.196 11.2094 10.0855C11.6014 9.86358 12.0651 9.80456 12.5002 9.92121C12.9354 10.0379 13.3072 10.3208 13.5354 10.709L19.4921 21.0246C19.5668 21.154 19.6743 21.2613 19.8038 21.336C19.9332 21.4106 20.0801 21.4498 20.2296 21.4497C20.3783 21.4457 20.5241 21.4069 20.655 21.3364C20.8479 21.2211 20.9883 21.0354 21.0466 20.8185C21.1048 20.6017 21.0763 20.3707 20.9671 20.1744L18.6978 16.2352C18.5863 16.0428 18.514 15.8303 18.485 15.6098C18.456 15.3894 18.4709 15.1653 18.5289 14.9507C18.5869 14.736 18.6868 14.5349 18.8229 14.359C18.959 14.1831 19.1286 14.0357 19.3219 13.9256C19.5131 13.8116 19.7252 13.737 19.9457 13.7059C20.1661 13.6749 20.3906 13.6882 20.6059 13.7449C20.8212 13.8017 21.023 13.9008 21.1995 14.0364C21.3759 14.172 21.5235 14.3415 21.6336 14.5349L24.0447 18.715C24.6602 19.7772 25.0601 20.9503 25.2215 22.1672C25.3829 23.384 25.3025 24.6207 24.985 25.8065C24.6676 26.9922 24.1192 28.1039 23.3714 29.0777C22.6235 30.0516 21.6909 30.8686 20.6267 31.482ZM27.0088 23.5327C27.0405 21.5429 26.5254 19.5825 25.5197 17.8648L23.1086 13.6847C22.777 13.1112 22.2838 12.6479 21.6904 12.3527L21.4918 12.0126C21.3771 11.8206 21.3029 11.6072 21.2736 11.3854C21.2444 11.1637 21.2607 10.9384 21.3216 10.7232C21.3779 10.5064 21.4772 10.3031 21.6137 10.1255C21.7501 9.94776 21.9209 9.79927 22.1158 9.68878C22.5078 9.46683 22.9715 9.4078 23.4067 9.52445C23.8418 9.6411 24.2136 9.92407 24.4418 10.3123L26.8528 14.4782C27.6366 15.8533 28.0616 17.4033 28.0889 18.9855C28.1162 20.5677 27.7448 22.1314 27.0088 23.5327ZM22.5981 3.1565L23.1937 0.960174C23.2718 0.767871 23.4177 0.610754 23.6037 0.518436C23.7897 0.426118 24.0031 0.404974 24.2037 0.458991C24.4043 0.513007 24.5781 0.638452 24.6925 0.811683C24.8069 0.984913 24.8539 1.19397 24.8247 1.39944L24.2432 3.59576C24.1957 3.77663 24.0888 3.93634 23.9397 4.04937C23.7905 4.16239 23.6078 4.2222 23.4206 4.21923C23.3486 4.22375 23.2763 4.21413 23.2079 4.19089C22.9899 4.13421 22.8033 3.99351 22.689 3.79961C22.5747 3.60572 22.542 3.37445 22.5981 3.1565ZM26.2997 4.54514L27.5903 2.68889C27.7201 2.50287 27.9185 2.37597 28.1419 2.33611C28.3654 2.29625 28.5955 2.34669 28.7817 2.47634C28.9679 2.606 29.0949 2.80424 29.1348 3.02746C29.1747 3.25067 29.1242 3.48058 28.9944 3.66661L27.6896 5.52285C27.6129 5.63648 27.5094 5.7295 27.3882 5.79375C27.267 5.85799 27.1318 5.89148 26.9947 5.89127C26.8178 5.88723 26.6457 5.83318 26.4983 5.7354C26.3164 5.60205 26.1938 5.40297 26.1567 5.18061C26.1196 4.95826 26.1709 4.73023 26.2997 4.54514ZM32.1288 7.22323L30.2708 8.51269C30.1266 8.61693 29.9524 8.67163 29.7744 8.66855C29.5945 8.66669 29.4199 8.60791 29.2755 8.50065C29.1311 8.39339 29.0245 8.24317 28.9709 8.07158C28.9173 7.89998 28.9196 7.71584 28.9773 7.54559C29.035 7.37535 29.1453 7.22777 29.2922 7.12404L31.1502 5.82042C31.3364 5.69077 31.5665 5.64032 31.7899 5.68018C32.0133 5.72004 32.2117 5.84694 32.3415 6.03297C32.4713 6.21899 32.5218 6.4489 32.4819 6.67212C32.442 6.89534 32.315 7.09358 32.1288 7.22323Z" fill="black" fill-opacity="0.2"/>
</svg>